<svg width="20" height="20" viewBox="0 0 20 20" fill="none" xmlns="http://www.w3.org/2000/svg">
<path d="M3.47227 6.38933L6.66672 7.31156L10.1778 4.76156L5.13894 4.906C5.0896 4.90869 5.04178 4.924 5.00005 4.95045L3.4056 5.86711C3.35601 5.89459 3.3158 5.93632 3.29017 5.9869C3.26454 6.03748 3.25468 6.09458 3.26186 6.15083C3.26904 6.20707 3.29293 6.25987 3.33044 6.30239C3.36796 6.34491 3.41736 6.3752 3.47227 6.38933Z" fill="black"/>
<path d="M19.1778 3.53366L15.6778 2.77811C15.3835 2.71421 15.0788 2.71437 14.7845 2.7786C14.4903 2.84282 14.2132 2.9696 13.9723 3.15033L3.40006 10.8337L0.861168 10.7226C0.715743 10.7176 0.572439 10.7585 0.45149 10.8394C0.330542 10.9203 0.23806 11.0371 0.187103 11.1734C0.136146 11.3097 0.129289 11.4586 0.167499 11.599C0.20571 11.7394 0.287058 11.8642 0.400057 11.9559L2.87228 13.917C2.91298 13.9498 2.96142 13.9717 3.01298 13.9804C3.06453 13.9892 3.11747 13.9846 3.16672 13.967C3.87228 13.6948 6.50006 12.3003 9.60561 10.5948L10.2278 16.9892C10.2331 17.0446 10.2534 17.0975 10.2865 17.1422C10.3197 17.1869 10.3644 17.2217 10.4158 17.2428C10.4673 17.264 10.5235 17.2707 10.5785 17.2622C10.6335 17.2537 10.6851 17.2304 10.7278 17.1948L12.1167 16.0392C12.1928 15.9754 12.2439 15.8869 12.2612 15.7892L13.5778 8.40589C15.8001 7.17255 17.9223 5.97811 19.4167 5.13366C19.5718 5.04927 19.6972 4.91925 19.7759 4.76121C19.8547 4.60317 19.8829 4.42475 19.8568 4.25012C19.8307 4.0755 19.7516 3.91311 19.6302 3.78495C19.5087 3.6568 19.3508 3.56907 19.1778 3.53366Z" fill="black"/>
</svg>
